<?xml version="1.0" encoding="UTF-8"?>
<svg version="1.1" viewBox="0 0 1600 1600" width="1280" height="1280" xmlns="http://www.w3.org/2000/svg">
<path transform="translate(1057,301)" d="m0 0h30l6 3 6 8 7 15 13 31 17 41 15 37 14 34 17 40 11 27 12 29 13 31 32 78 14 33 8 20 24 57 15 36 20 49 18 43 16 39 11 26 19 47 13 31 9 20 10 21 9 14 9 10 11 7 13 4 36 6 9 3 2 8v10l-1 10-5 5-4 1-50 1h-259l-3-3-2-8-1-18 2-7 3-2 61-5 20-2 12-3 8-5 2-4v-11l-8-30-10-26-31-80-16-41-11-28-8-16-3-4-355 1-5 10-17 41-12 30-15 39-15 42-12 37-3 14v12l4 9 10 5 16 5 35 5 30 4 6 3 2 5-1 26-4 4-250 1-14-1-3-8-1-10v-11l2-7 2-2h24l25-2 11-3 8-4 9-10 11-17 10-21 7-15 13-29 7-15 18-40 11-26 17-39 15-35 11-26 12-28 10-24 8-19 21-49 13-31 12-28 31-74 13-31 10-23 10-24 11-27 10-24 12-30 11-27 22-55 9-23 10-25 6-8 7-3zm-21 140-6 8-6 17-13 34-9 24-19 47-11 28-26 65-22 56-12 31-14 36-11 27-9 21v1h315l-3-9-9-24-11-28-38-96-28-70-18-46-13-33-15-40-12-30-7-16z" fill="#144278"/>
<path transform="translate(277,595)" d="m0 0h57l25 3 24 6 20 8 16 8 14 8 17 12 15 13 10 10 12 16 10 16 11 23 11 33 5 26 4 30 2 27v20l-2 7-3 3-16 5-27 5-40 4-45 3-26 1-45 1-82 1h-95l-19 1v8l1 10v12l3 23 7 33 7 24 10 24 8 16 12 17 8 10 12 13 7 7 17 13 21 12 17 8 18 6 23 4 9 1 27 1 27-1 24-4 27-7 20-7 27-13 19-12 16-11 9-3 2 2v10l-11 27-8 15-7 7-18 11-16 8-23 10-26 8-36 9-23 4-29 3-12 1h-42l-29-3-25-5-21-6-28-12-19-11-14-10-11-9-16-15-13-14-13-17-10-15-9-16-10-21-7-19-7-27-5-27-5-47v-27l5-43 5-28 8-29 9-24 16-33 11-17 9-11 12-13 6-6h2l1-3 28-22 20-13 32-18 23-10 22-8 25-6 19-3zm-14 34-15 2-19 5-14 6-13 8-13 11-14 15-10 14-11 21-9 23-6 25-5 29-3 27-1 20 2 10 2 1h207l57-1 12-2 2-1 1-8v-41l-2-23-4-23-7-28-6-15-8-16-7-11-11-12-10-9-15-10-17-8-18-5-16-3-9-1z" fill="#144278"/>
</svg>
