<?xml version="1.0" encoding="UTF-8"?>
<svg version="1.1" viewBox="0 0 2000 2000" width="1280" height="1280" xmlns="http://www.w3.org/2000/svg">
<path transform="translate(1362,537)" d="m0 0h10l8 3 6 7 1 7v736l-1 19-7 16-7 9-9 8-13 6-10 3-56 1-527 1h-426l-6-2v-2l10-5 12-5 10-9 6-8 11-23 2-1h897l-1-145-1-323-4-8-1-3-5-2-7-2-9 1-10 8-12 12h-2l-1 3-5 5h-2l-2 4h-2l-2 4-4 4h-2l-2 4-60 60-10 8-14 7-10 2h-15l-10-2-12-5-6-4-11-11-7-12-4-12v-21l6-16 10-14 300-300z"/>
<path transform="translate(1579,538)" d="m0 0h10l10 7 13 12 157 157 6 5 6 7 6 5 6 7 6 5 6 7 6 5 5 6 3 2v2l4 2 4 4v2l4 2v2l4 2v2l4 2v2l4 2 5 6 7 6 5 6 8 7 19 19 7 8 8 10 7 12 3 10v20l-4 14-5 9-9 10-8 7-17 7h-27l-17-7-10-8-7-7-8-7-78-78-6-7-8-6-10-1-9 3-5 5-3 8-1 72-1 286-1 115-5 15-4 8-11 12-9 6-9 4-7 2h-23l-15-6-12-9-9-10-6-10-3-14v-750l5-10z"/>
<path transform="translate(907,991)" d="m0 0h160l169 2 2 1v48l-1 1-95 1-2 227h-95v-228l-123 1-2 227h-125v-51l27-1v-63l-1-105v-8h-26v-49l5-1 27-1z"/>
<path transform="translate(386,991)" d="m0 0h48l19 1 8 16 13 34 16 42 18 46 12 32 2 8h2l20-55 22-58 15-40 8-22 2-2 46-1h47l-3 10-16 42-19 48-19 49-19 48-20 51-11 28-2 3-78 1h-20l-9-1-5-12-14-37-43-107-22-55-7-18-17 1-2-5 1-37 1-9z"/>
<path transform="translate(232,991)" d="m0 0h57l44 1v267l-4 22-6 16-6 11-9 11-14 11-16 8-21 7-15 3-23 3-20 1h-32l-22-1-26-4-2-1-1-6 4-28 5-24 1-1 14 1 9 1h31l23-5 14-7 8-8 5-9 1-8 1-138 1-72-3 1h-23l-1-1-1-26v-24z"/>
<path transform="translate(1419,717)" d="m0 0h22l92 1 5 1v25l-2 1-49 1v51h51v25l-1 1h-120l-1-3v-21l1-2h46l1-40 1-12h-45l-3-2v-18l1-7z"/>
<path transform="translate(1527,1080)" d="m0 0h10l1 1v88l-2 1h-119l-1-2v-83l1-2h21l2 1v59l23-1v-52l22-2 2 2v52l12 1h10l2-1 1-41 1-19 1-1z"/>
<path transform="translate(1495,543)" d="m0 0h13l12 3 8 5 7 9 4 10 2 12v20l-3 13-7 12-9 8-9 4h-12l-1-1v-25l12-6 3-4 2-9v-8l-3-9-4-3h-11l-4 4-4 9-7 25-7 14-8 7-8 3-7 1h-8l-8-2-10-7-7-8-5-11-1-4v-26l4-11 7-11 9-8 4-2h12l1 2 1 12v11l-10 6-3 4-1 10 2 10 5 5 5 2 5-3 3-4 7-25 7-16 6-10 10-6z"/>
<path transform="translate(1498,899)" d="m0 0 7 1 16 8 10 10 6 12 3 11v23l-4 13-5 9-9 10-10 7-12 4-5 1h-36l-15-5-11-7-7-7-8-13-3-8v-31l5-13 6-8 4-5 10-7 7-4 5 1 6 19-1 5-5 5-8 5-3 2-2 7v13l4 11 5 5 6 4 10 3 7 1h11l15-3 8-4 5-5 4-7 2-10-2-10-4-6-8-7-8-4-1-3 3-14z"/>
<path transform="translate(685,1097)" d="m0 0h43l32 1 2 5v62l-1 1-52 1h-23l-1-1z"/>
<path transform="translate(1417,1245)" d="m0 0h22l1 1v37l71 1 25 1 1 2 1 12v12l-96 1-1 5-1 31-2 2-10 1h-12l-1-1v-74l1-29z"/>
</svg>
